<svg width="22" height="22" viewBox="0 0 22 22" fill="none" xmlns="http://www.w3.org/2000/svg">
<path d="M1.84375 6.50195H19.7547" stroke="black" stroke-width="1.8" stroke-linejoin="round"/>
<path d="M12.1543 2.00195L14.7265 6.50285" stroke="black" stroke-width="1.8" stroke-linecap="round" stroke-linejoin="round"/>
<path d="M6.48633 2.09766L9.00183 6.50046" stroke="black" stroke-width="1.8" stroke-linecap="round" stroke-linejoin="round"/>
<path d="M1.80078 11.0009V14.105C1.80078 16.6691 2.42898 17.7104 3.24618 18.5555C4.09218 19.3727 5.13438 20.0018 7.69758 20.0018H13.904C16.4672 20.0018 17.5094 19.3727 18.3554 18.5555C19.1726 17.7104 19.8008 16.6691 19.8008 14.105V7.8968C19.8008 5.3336 19.1726 4.2914 18.3554 3.4463C17.5094 2.6291 16.4672 2 13.904 2H7.69758C5.13438 2 4.09218 2.6291 3.24618 3.4463C2.42898 4.2914 1.80078 5.3336 1.80078 7.8968V11.0009Z" stroke="black" stroke-width="1.8" stroke-linecap="round" stroke-linejoin="round"/>
<path fill-rule="evenodd" clip-rule="evenodd" d="M8.78751 16.0973C8.66319 16.0255 8.55997 15.9223 8.48824 15.798C8.41652 15.6736 8.3788 15.5326 8.37891 15.389V10.6667C8.37874 10.523 8.41644 10.3817 8.48821 10.2572C8.55999 10.1327 8.66331 10.0293 8.78776 9.95737C8.91222 9.88547 9.05342 9.84763 9.19716 9.84766C9.34089 9.84768 9.48208 9.88558 9.60651 9.95752L13.697 12.3191C13.8215 12.3909 13.9249 12.4942 13.9968 12.6186C14.0687 12.743 14.1065 12.8842 14.1065 13.0279C14.1065 13.1716 14.0687 13.3127 13.9968 13.4371C13.9249 13.5616 13.8215 13.6649 13.697 13.7366L9.60651 16.0982C9.482 16.1701 9.34077 16.2079 9.19701 16.2079C9.05324 16.2079 8.91201 16.1701 8.78751 16.0982V16.0973Z" fill="black"/>
</svg>
