<svg width="22" height="22" viewBox="0 0 22 22" fill="none" xmlns="http://www.w3.org/2000/svg">
<g clip-path="url(#clip0_1910_89)">
<path d="M9.89743 1.39329C9.84996 0.899167 10.2124 0.456009 10.7088 0.451575C12.5542 0.435092 14.3765 0.9125 15.9834 1.84196C17.8504 2.9219 19.3334 4.55816 20.2252 6.52208C21.1169 8.486 21.3728 10.6795 20.9571 12.7959C20.5994 14.6174 19.7595 16.3036 18.5326 17.6822C18.2026 18.053 17.6303 18.0342 17.2896 17.6733V17.6733C16.9488 17.3123 16.9693 16.7463 17.2925 16.3695C18.2505 15.2527 18.9077 13.9032 19.1932 12.4495C19.5367 10.7006 19.3252 8.88811 18.5884 7.26529C17.8515 5.64247 16.6261 4.2904 15.0833 3.39803C13.8008 2.65622 12.3523 2.26288 10.881 2.24916C10.3846 2.24453 9.94489 1.88742 9.89743 1.39329V1.39329Z" fill="white"/>
<path d="M15.7355 18.8621C15.9946 19.2854 15.863 19.8426 15.4187 20.0641C14.1859 20.6786 12.8399 21.0423 11.4591 21.1302C10.0784 21.2182 8.69712 21.0283 7.39627 20.5751C6.9275 20.4118 6.72621 19.8758 6.92956 19.423V19.423C7.13291 18.9701 7.66385 18.7728 8.13552 18.9275C9.16694 19.2658 10.2561 19.4056 11.3448 19.3362C12.4336 19.2669 13.4962 18.9901 14.4764 18.5236C14.9246 18.3103 15.4763 18.4387 15.7355 18.8621V18.8621Z" fill="white"/>
<path d="M5.44796 18.5901C5.1668 18.9992 4.60429 19.1059 4.22112 18.7903C2.92457 17.7224 1.90716 16.3547 1.25728 14.8058C1.06522 14.348 1.32909 13.84 1.80176 13.6883V13.6883C2.27444 13.5367 2.77622 13.7995 2.97661 14.2536C3.49431 15.427 4.2695 16.4691 5.24438 17.3024C5.62173 17.6249 5.72912 18.181 5.44796 18.5901V18.5901Z" fill="white"/>
<path d="M1.45326 12.1945C0.962284 12.2677 0.500821 11.9289 0.470496 11.4334C0.394764 10.196 0.541984 8.95493 0.905107 7.76959C1.05051 7.29496 1.57844 7.07348 2.03867 7.2595V7.2595C2.4989 7.44552 2.71624 7.9686 2.57953 8.4458C2.32627 9.32981 2.21724 10.249 2.25665 11.1677C2.27793 11.6636 1.94424 12.1214 1.45326 12.1945V12.1945Z" fill="white"/>
<path d="M3.00806 5.45399C2.59875 5.17314 2.49168 4.61075 2.80698 4.22734C3.04813 3.93407 3.30525 3.6543 3.57715 3.38929C3.93264 3.04281 4.50205 3.10211 4.81639 3.48631V3.48631C5.13072 3.8705 5.07015 4.43368 4.72105 4.78659C4.57364 4.9356 4.43175 5.08999 4.29568 5.24944C3.97345 5.62703 3.41737 5.73484 3.00806 5.45399V5.45399Z" fill="white"/>
<rect x="9.90039" y="6.30078" width="1.8" height="9" rx="0.9" fill="white"/>
<rect x="6.30078" y="11.7012" width="1.8" height="9" rx="0.9" transform="rotate(-90 6.30078 11.7012)" fill="white"/>
</g>
<defs>
<clipPath id="clip0_1910_89">
<rect width="21.6" height="21.6" fill="white"/>
</clipPath>
</defs>
</svg>
