<svg width="10" height="10" viewBox="0 0 10 10" fill="none" xmlns="http://www.w3.org/2000/svg">
<g clip-path="url(#clip0_1980_629)">
<path d="M0.220398 9.77465C0.520121 10.0748 1.03038 10.0689 1.31265 9.78049L4.88994 6.12566L8.46338 9.77854C8.7533 10.0748 9.25811 10.077 9.55375 9.7727C9.84939 9.46651 9.85129 8.95911 9.56137 8.66095L5.98791 5.00387L9.56137 1.35292C9.85129 1.05672 9.85344 0.545147 9.55375 0.243106C9.254 -0.0631159 8.7533 -0.065066 8.46338 0.235308L4.88994 3.88627L1.31265 0.233358C1.03038 -0.0572673 0.516027 -0.0692473 0.220398 0.241156C-0.0733239 0.547379 -0.0675992 1.06257 0.214673 1.35096L3.79196 5.00387L0.214673 8.66484C-0.0675992 8.95132 -0.0774171 9.4726 0.220398 9.77465Z" fill="#F5F5F5"/>
</g>
<defs>
<clipPath id="clip0_1980_629">
<rect width="10" height="10" fill="white"/>
</clipPath>
</defs>
</svg>
